<?xml version="1.0" encoding="UTF-8"?>
<svg width="1024px" height="1024px" viewBox="0 0 1024 1024" version="1.1" xmlns="http://www.w3.org/2000/svg" xmlns:xlink="http://www.w3.org/1999/xlink">
    <!-- Generator: Sketch 43.2 (39069) - http://www.bohemiancoding.com/sketch -->
    <title>Desktop</title>
    <desc>Created with Sketch.</desc>
    <defs></defs>
    <g id="Welcome" stroke="none" stroke-width="1" fill="none" fill-rule="evenodd">
        <g id="Desktop">
            <path d="M911.398709,133.518187 C1008.76078,242.212032 1008.75859,418.442015 911.399699,527.132315 L512.57925,972.370666 L160,578.755433 L558.820449,133.517081 C656.181973,24.8238465 814.042659,24.8310642 911.398709,133.518187" id="Rectangle-2" fill="#F55151"></path>
            <path d="M112.019585,133.519607 C209.381657,24.8257615 367.23895,24.8282023 464.597845,133.518502 L863.418294,578.756853 L510.839044,972.372086 L112.018595,527.133735 C14.6570707,418.4405 14.6635359,242.206729 112.019585,133.519607" id="Rectangle-2-Copy" fill="#F55151"></path>
            <path d="M145.209134,170.50903 C149.993096,157.972903 153.78586,154.67582 169.775724,143.92622 C184.418302,134.082368 214.222269,127.058354 224.060105,127.058354 C262.767687,127.058354 322.474237,146.341421 316.595765,157.972903 C309.191706,172.623 239.294305,156.497834 197.495043,179.621511 C154.838767,203.219295 155.899439,261.374138 145.209134,255.712958 C131.899407,248.664631 136.260008,185.904784 145.209134,170.50903 Z" id="Rectangle-3" fill="#FFFFFF"></path>
            <rect id="Rectangle-4" fill="#FFFFFF" x="476" y="280" width="73" height="412" rx="36.5"></rect>
            <rect id="Rectangle-4" fill="#FFFFFF" transform="translate(512.500000, 486.000000) rotate(90.000000) translate(-512.500000, -486.000000) " x="476" y="280" width="73" height="412" rx="36.5"></rect>
        </g>
    </g>
</svg>