<?xml version="1.0" encoding="UTF-8"?>
<svg width="1024px" height="1024px" viewBox="0 0 1024 1024" version="1.1" xmlns="http://www.w3.org/2000/svg" xmlns:xlink="http://www.w3.org/1999/xlink">
    <!-- Generator: Sketch 43.2 (39069) - http://www.bohemiancoding.com/sketch -->
    <title>Desktop</title>
    <desc>Created with Sketch.</desc>
    <defs>
        <path d="M403.946575,805.89315 C182.509896,805.89315 3,626.383254 3,404.946575 C3,183.509896 182.509896,4 403.946575,4 C625.383254,4 804.89315,183.509896 804.89315,404.946575 C804.89315,626.383254 625.383254,805.89315 403.946575,805.89315 Z M403.946575,705.656507 C570.024084,705.656507 704.656507,571.024084 704.656507,404.946575 C704.656507,238.869066 570.024084,104.236644 403.946575,104.236644 C237.869066,104.236644 103.236644,238.869066 103.236644,404.946575 C103.236644,571.024084 237.869066,705.656507 403.946575,705.656507 Z" id="path-1"></path>
    </defs>
    <g id="Welcome" stroke="none" stroke-width="1" fill="none" fill-rule="evenodd">
        <g id="Desktop">
            <mask id="mask-2" fill="white">
                <use xlink:href="#path-1"></use>
            </mask>
            <use id="Combined-Shape" fill="#FFFFFF" xlink:href="#path-1"></use>
            <path d="M701.233465,746.764548 C691.510252,736.859845 664.866642,641.83871 666.037387,629.1225 C667.004251,618.620759 670.35768,685.466448 678.676448,677.56394 C697.064091,660.096386 665.190375,632.12467 682.951788,650.21761 C687.44213,654.791766 753.09587,687.829419 757.586212,692.403575 L994.350055,933.586753 C1012.10323,951.6713 1011.59293,980.488131 993.201246,997.959525 C974.813603,1015.42708 945.52392,1014.9353 927.762507,996.842359 L701.233465,746.764548 Z" id="Rectangle" fill="#FFFFFF"></path>
            <rect id="Rectangle-2" fill="#FFFFFF" x="362" y="263" width="80.189315" height="288.681534" rx="20"></rect>
            <rect id="Rectangle-2" fill="#FFFFFF" transform="translate(402.094658, 407.340767) rotate(90.000000) translate(-402.094658, -407.340767) " x="362" y="263" width="80.189315" height="288.681534" rx="20"></rect>
        </g>
    </g>
</svg>